# xmcd CD database file
#
# Track frame offsets:
#	150
#	27125
#	37104
#	64584
#	97757
#	117588
#	148119
#	175335
#	202904
#	224588
#	246080
#	270105
#
# Disc length: 4074 seconds
#
# Revision: 0
# Processed by: cddbd v1.5.2PL0 Copyright (c) Steve Scherf et al.
# Submitted via: CDex 1.51
#
DISCID=a80fe80c
DTITLE=Capella Leopoldina and Amen - Fusion
DYEAR=2008
DGENRE=Jazz
TTITLE0=Se laura spira
TTITLE1=Black and grey
TTITLE2=Hwlett
TTITLE3=Folia I
TTITLE4=Folia II
TTITLE5=Recercarde
TTITLE6=Chiacona I
TTITLE7=Chiacona II
TTITLE8=Canzona
TTITLE9=Greensleeves I
TTITLE10=Greensleeves II
TTITLE11=Ciaconna
EXTD=YEAR: 2008
EXTT0=
EXTT1=
EXTT2=
EXTT3=
EXTT4=
EXTT5=
EXTT6=
EXTT7=
EXTT8=
EXTT9=
EXTT10=
EXTT11=
PLAYORDER=
